# xmcd
#
# Track frame offsets: 
#        150
#        11094
#        21818
#        29975
#        40905
#        49945
#        61024
#        71425
#        80466
#        90083
#        102731
#        113626
#        123854
#        134857
#        146554
#        158087
#        168058
#        177342
#        186821
#        198741
#        209234
#        219790
#        232482
#        241379
#        252761
#        261457
#        271030
#        281688
#        293549
#        302187
#        313938
#        326484
#        336670
#
# Disc length: 4605 seconds
#
# Revision: 0
# Processed by: cddbd v1.5.2PL0 Copyright (c) Steve Scherf et al.
# Submitted via: ExactAudioCopyFreeDBPlugin 1.0
#
DISCID=fb11fb21
DTITLE=Various Artist - In The Shadow Of The Sun - Memphis Area R&B A
DTITLE=nd Rock And Roll [CD 2)
DYEAR=1900
DGENRE=
TTITLE0=Allen Page and The Deltones - Dateless Night
TTITLE1=Carl Mann and The Kool Kats - Rockin Love
TTITLE2=Lynn Pratt and His Rhythm Cats - Come Here Mama
TTITLE3=Chester Guydon and Band - Miss Fannie Brown
TTITLE4=Allen Page - Sugar Tree
TTITLE5=Wallin Bill Dell and The Bachelors - Do You Care
TTITLE6=Curits Hobock - Tom Dooley Rock and Roll
TTITLE7=Big Four - Outa Time
TTITLE8=Lynn Pratt With Jubilaires Quartet - Red Headed Woman
TTITLE9=Charles Senns - Dig Me A Crazy Record
TTITLE10=Franklin Stewart and The Stewart Brothers - That Long Black Tra
TTITLE10=in
TTITLE11=Jimme Martin Combo Feat Ramsey Kearney - Rock The Bop
TTITLE12=Joe Wallace and Al Woodys Owls - Leopard Man
TTITLE13=Allen Page and The Crowns With The Moon Beams - Honeysuckle
TTITLE14=Dave Gardner - Mad Witch
TTITLE15=Carl Miller - Rhythm Guitar
TTITLE16=Curtis Hobock and The Stardusters - The Whole Towns Talking
TTITLE17=Barney Burcham with The Moon Beams - I Fell
TTITLE18=Chester Guydon and Band - You Gotta Help Me Some
TTITLE19=Lynn Pratt and His Rhythm Cats - They're Learning
TTITLE20=Wink Martindale - Loves Got Me Thinkin
TTITLE21=Allen Page with Sandy and Sue and The Big Four - Oh Baby
TTITLE22=Jimmie Martin Combo feat Ramsey Kearney - Red Bobby Socks
TTITLE23=Churtis Hobock - China Rock
TTITLE24=Wallin Bill Dell and The Bachelors - You Gotta Be Loose
TTITLE25=Big Four - All Keyed Up
TTITLE26=Dave Gardner - Love Is My Business
TTITLE27=Carne Pitrello - The Saints
TTITLE28=Carl Mann and The Kool Kats - Gonna Rock And Roll Tonight
TTITLE29=Charles Senns - Geh Whiz Liz
TTITLE30=Lynn Pratt - Tom Cat Boogie
TTITLE31=Allen Page - Shes The One That Got It
TTITLE32=Wink Martindale - Love Broke Loose
EXTD=
EXTT0=
EXTT1=
EXTT2=
EXTT3=
EXTT4=
EXTT5=
EXTT6=
EXTT7=
EXTT8=
EXTT9=
EXTT10=
EXTT11=
EXTT12=
EXTT13=
EXTT14=
EXTT15=
EXTT16=
EXTT17=
EXTT18=
EXTT19=
EXTT20=
EXTT21=
EXTT22=
EXTT23=
EXTT24=
EXTT25=
EXTT26=
EXTT27=
EXTT28=
EXTT29=
EXTT30=
EXTT31=
EXTT32=
PLAYORDER=
